<svg height="512pt" viewBox="0 0 512 512" width="512pt" xmlns="http://www.w3.org/2000/svg"><path d="m512 256c0 125.011719-89.601562 229.082031-208.082031 251.515625-15.515625 2.949219-31.535157 4.484375-47.917969 4.484375-5.191406 0-10.34375-.15625-15.453125-.460938-11.035156-.65625-21.871094-2.003906-32.476563-4.023437-118.480468-22.433594-208.070312-126.515625-208.070312-251.515625 0-141.386719 114.613281-256 256-256s256 114.613281 256 256zm0 0" fill="#304e87"/><path d="m408.316406 114.792969 24.472656-5.359375c7.578126-1.660156 7.578126-12.460938 0-14.121094l-24.472656-5.363281c-2.757812-.601563-4.910156-2.753907-5.511718-5.511719l-5.363282-24.472656c-1.65625-7.578125-12.460937-7.578125-14.121094 0l-5.359374 24.472656c-.601563 2.757812-2.757813 4.910156-5.511719 5.511719l-24.476563 5.363281c-7.574218 1.660156-7.574218 12.460938 0 14.121094l24.476563 5.359375c2.753906.605469 4.910156 2.757812 5.511719 5.515625l5.359374 24.472656c1.660157 7.574219 12.464844 7.574219 14.121094 0l5.363282-24.472656c.601562-2.757813 2.753906-4.910156 5.511718-5.515625zm0 0" fill="#1f3f72"/><path d="m476.617188 290.472656 24.472656-5.359375c7.574218-1.660156 7.574218-12.460937 0-14.121093l-24.472656-5.359376c-2.757813-.605468-4.910157-2.757812-5.515626-5.515624l-5.359374-24.472657c-1.660157-7.574219-12.460938-7.574219-14.121094 0l-5.359375 24.472657c-.605469 2.757812-2.757813 4.910156-5.515625 5.515624l-24.472656 5.359376c-7.574219 1.660156-7.574219 12.460937 0 14.121093l24.472656 5.359375c2.757812.605469 4.910156 2.757813 5.515625 5.515625l5.359375 24.472657c1.660156 7.578124 12.460937 7.578124 14.121094 0l5.359374-24.472657c.605469-2.757812 2.757813-4.910156 5.515626-5.515625zm0 0" fill="#1f3f72"/><path d="m303.917969 507.515625c-15.515625 2.949219-31.535157 4.484375-47.917969 4.484375s-32.402344-1.535156-47.929688-4.484375l9.164063-118.898437 2.277344-29.609376v-68.882812l72.964843 3.28125v65.601562l2.277344 29.609376zm0 0" fill="#fecf32"/><path d="m244.316406 291.234375v67.773437l-3.769531 152.53125c-11.035156-.65625-21.871094-2.003906-32.476563-4.023437l11.441407-148.507813v-68.882812zm0 0" fill="#fdae2f"/><path d="m255.988281 291.765625-11.671875-.527344v-1.113281zm0 0" fill="#fdae2f"/><path d="m294.757812 388.621094-20.050781-10.546875c-11.714843-6.148438-25.707031-6.148438-37.425781 0l-20.050781 10.546875 2.285156-29.613282v-68.882812l72.964844 3.28125v65.601562zm0 0" fill="#fdae2f"/><path d="m292.050781 23.101562 30.960938 62.730469c5.855469 11.867188 17.179687 20.089844 30.273437 21.992188l69.226563 10.0625c32.980469 4.789062 46.148437 45.320312 22.285156 68.582031l-50.09375 48.828125c-9.476563 9.238281-13.800781 22.546875-11.5625 35.589844l11.824219 68.949219c5.632812 32.84375-28.84375 57.894531-58.339844 42.382812l-61.917969-32.550781c-11.714843-6.160157-25.707031-6.160157-37.421875 0l-61.917968 32.550781c-29.5 15.511719-63.976563-9.539062-58.339844-42.382812l11.824218-68.949219c2.238282-13.042969-2.085937-26.351563-11.5625-35.589844l-50.09375-48.828125c-23.867187-23.261719-10.695312-63.792969 22.28125-68.582031l69.230469-10.0625c13.09375-1.902344 24.414063-10.125 30.273438-21.992188l30.957031-62.730469c14.75-29.886718 57.367188-29.886718 72.113281 0zm0 0" fill="#fecf32"/><g fill="#fdae2f"><path d="m219.875 223.082031-91.191406 33.265625c-1.554688-7.898437-5.46875-15.273437-11.398438-21.046875l-50.089844-48.832031c-11.222656-10.941406-14.253906-25.707031-10.882812-38.769531l162.960938 50.769531c-1.128907 3.617188-1.730469 7.457031-1.730469 11.441406 0 4.625.820312 9.054688 2.332031 13.171875zm0 0"/><path d="m233.570312 178.679688-56.414062-78.554688c4.933594-3.710938 9.015625-8.585938 11.824219-14.289062l30.960937-62.734376c7.382813-14.941406 21.714844-22.414062 36.054688-22.414062v170.769531c-8.378906 0-16.113282 2.671875-22.425782 7.222657zm0 0"/><path d="m278.804688 240.867188 101.242187 137.496093c-11.671875 9.066407-28.203125 11.855469-43.417969 3.859375l-61.914062-32.554687c-5.863282-3.085938-12.285156-4.617188-18.707032-4.617188-6.433593 0-12.867187 1.53125-18.71875 4.617188l-61.914062 32.554687c-15.21875 7.996094-31.746094 5.207032-43.417969-3.859375l101.242188-137.496093c6.378906 4.714843 14.253906 7.492187 22.796875 7.492187h.011718c8.53125 0 16.417969-2.777344 22.796876-7.492187zm0 0"/><path d="m444.792969 186.46875-50.089844 48.832031c-5.929687 5.773438-9.832031 13.148438-11.386719 21.046875l-91.1875-33.265625c1.496094-4.113281 2.316406-8.542969 2.316406-13.171875 0-3.980468-.601562-7.820312-1.726562-11.441406l162.960938-50.769531c3.378906 13.058593.347656 27.828125-10.886719 38.769531zm0 0"/></g><path d="m322.175781 209.199219c0 36.554687-29.628906 66.183593-66.179687 66.183593-36.550782 0-66.183594-29.628906-66.183594-66.183593 0-36.550781 29.632812-66.179688 66.183594-66.179688 36.550781 0 66.179687 29.628907 66.179687 66.179688zm0 0" fill="#fecf32"/><path d="m285.53125 209.199219c0 16.3125-13.222656 29.539062-29.535156 29.539062s-29.535156-13.226562-29.535156-29.539062c0-16.308594 13.222656-29.535157 29.535156-29.535157s29.535156 13.226563 29.535156 29.535157zm0 0" fill="#fdae2f"/><path d="m328.085938 458.992188c0 6.636718-2.683594 12.644531-7.03125 16.988281-4.347657 4.347656-10.363282 7.042969-17 7.042969h-96.128907c-13.273437 0-24.035156-10.761719-24.035156-24.03125 0-6.636719 2.6875-12.644532 7.042969-16.988282 4.347656-4.347656 10.355468-7.042968 16.992187-7.042968h96.128907c13.28125 0 24.03125 10.761718 24.03125 24.03125zm0 0" fill="#fdae2f"/><path d="m328.085938 458.992188c0 6.636718-2.683594 12.644531-7.03125 16.988281-4.347657 4.347656-10.363282 7.042969-17 7.042969h-63.738282c-13.269531 0-24.03125-10.761719-24.03125-24.03125 0-6.636719 2.683594-12.644532 7.039063-16.988282 4.347656-4.347656 10.355469-7.042968 16.992187-7.042968h63.738282c13.28125 0 24.03125 10.761718 24.03125 24.03125zm0 0" fill="#fecf32"/><path d="m108.375 419.148438-24.480469 5.363281c-2.757812.605469-4.910156 2.757812-5.507812 5.515625l-1.867188 8.515625c-11.828125-11.628907-22.53125-24.398438-31.921875-38.128907l3.425782-.75c2.757812-.597656 4.910156-2.75 5.515624-5.507812l5.363282-24.472656c1.660156-7.574219 12.464844-7.574219 14.125 0l5.359375 24.472656c.597656 2.757812 2.75 4.910156 5.507812 5.507812l24.480469 5.371094c7.566406 1.648438 7.566406 12.453125 0 14.113282zm0 0" fill="#1f3f72"/><path d="m66.027344 250.011719 24.476562-5.359375c7.574219-1.660156 7.574219-12.460938 0-14.121094l-24.476562-5.359375c-2.753906-.605469-4.90625-2.757813-5.511719-5.515625l-5.359375-24.472656c-1.660156-7.578125-12.460938-7.578125-14.121094 0l-5.359375 24.472656c-.605469 2.757812-2.757812 4.910156-5.515625 5.515625l-24.472656 5.359375c-7.578125 1.660156-7.578125 12.460938 0 14.121094l24.472656 5.359375c2.757813.605469 4.910156 2.757812 5.515625 5.515625l5.359375 24.472656c1.660156 7.574219 12.460938 7.574219 14.121094 0l5.359375-24.472656c.605469-2.757813 2.757813-4.910156 5.511719-5.515625zm0 0" fill="#1f3f72"/><path d="m418.773438 453.589844c-11.785157 9.71875-24.449219 18.410156-37.867188 25.914062-.992188-1.179687-2.359375-2.015625-3.929688-2.363281l-24.46875-5.359375c-7.578124-1.660156-7.578124-12.464844 0-14.128906l24.46875-5.359375c2.761719-.59375 4.914063-2.746094 5.519532-5.507813l5.359375-24.46875c1.660156-7.578125 12.457031-7.578125 14.117187 0l5.359375 24.46875c.605469 2.761719 2.757813 4.914063 5.519531 5.507813zm0 0" fill="#1f3f72"/></svg>