<svg height="512pt" viewBox="0 0 512 512" width="512pt" xmlns="http://www.w3.org/2000/svg"><path d="m512 256c0 4.628906-.125 9.226562-.367188 13.804688-.40625 7.585937-1.136718 15.085937-2.191406 22.484374-8.777344 61.921876-39.71875 116.703126-84.535156 156.078126-45.074219 39.621093-104.175781 63.632812-168.90625 63.632812-34.773438 0-67.929688-6.9375-98.15625-19.488281-26.039062-10.824219-49.90625-25.820313-70.761719-44.15625-53.382812-46.90625-87.082031-115.703125-87.082031-192.355469 0-8.777344.4375-17.449219 1.296875-25.996094.773437-7.566406 1.859375-15.035156 3.269531-22.394531 22.621094-118.25 126.589844-207.609375 251.433594-207.609375 141.386719 0 256 114.613281 256 256zm0 0" fill="#304e87"/><path d="m424.90625 448.367188c-45.074219 39.621093-104.175781 63.632812-168.90625 63.632812s-123.839844-24.023438-168.917969-63.644531c8.820313-8.308594 17.429688-16.738281 25.839844-25.265625 39.914063-40.4375 75.328125-83.300782 106.058594-127.855469 17.867187-25.890625 56.160156-25.890625 74.03125 0 30.738281 44.554687 66.152343 87.417969 106.054687 127.855469 8.414063 8.527344 17.023438 16.957031 25.839844 25.277344zm0 0" fill="#3fc37c"/><path d="m399.070312 423.085938c-94.824218 14.523437-191.308593 14.523437-286.144531 0 39.914063-40.4375 75.324219-83.296876 106.054688-127.851563 17.871093-25.894531 56.164062-25.894531 74.03125 0 30.742187 44.554687 66.152343 87.414063 106.058593 127.851563zm0 0" fill="#17a388"/><path d="m256 275.820312c-6.394531 0-12.789062 6.46875-16.855469 19.414063-20.5625 65.507813-45.746093 127.355469-75.230469 183.246094-2.257812 4.285156-4.335937 9.039062-6.070312 14.03125-26.039062-10.824219-49.90625-25.820313-70.761719-44.15625 50.605469-47.699219 94.6875-99.171875 131.898438-153.121094 8.933593-12.945313 22.976562-19.414063 37.019531-19.414063zm0 0" fill="#17a388"/><path d="m102.871094 407.90625c-4.371094 0-8.355469-2.828125-9.828125-6.933594-1.449219-4.042968-.210938-8.699218 3.066406-11.484375 3.421875-2.902343 8.464844-3.277343 12.273437-.90625 3.65625 2.269531 5.578126 6.691407 4.738282 10.914063-.960938 4.820312-5.332032 8.410156-10.25 8.410156zm0 0" fill="#673389"/><path d="m362.902344 485.480469c-4.324219.078125-8.355469-2.621094-9.921875-6.65625-1.585938-4.078125-.394531-8.839844 2.914062-11.699219 3.3125-2.859375 8.222657-3.332031 12.019531-1.15625 3.789063 2.171875 5.851563 6.589844 5.09375 10.890625-.851562 4.863281-5.171874 8.539063-10.105468 8.621094zm0 0" fill="#fecf32"/><path d="m322.546875 484.980469c-5.691406-.25-10.226563-5.210938-9.976563-10.898438.246094-5.695312 5.207032-10.226562 10.898438-9.980469 5.578125.242188 10.078125 5.023438 9.988281 10.605469-.089843 5.625-4.808593 10.28125-10.4375 10.28125-.15625.003907-.3125 0-.472656-.007812zm0 0" fill="#673389"/><path d="m282.207031 481.78125c-4.199219-.488281-7.773437-3.574219-8.875-7.65625-1.121093-4.132812.476563-8.644531 3.929688-11.167969 3.453125-2.523437 8.246093-2.660156 11.839843-.328125 3.566407 2.320313 5.394532 6.683594 4.554688 10.851563-.96875 4.808593-5.324219 8.375-10.230469 8.375-.40625 0-.8125-.03125-1.21875-.074219zm0 0" fill="#fecf32"/><path d="m242.113281 475.429688c-5.578125-1.136719-9.296875-6.742188-8.160156-12.320313 1.132813-5.585937 6.746094-9.292969 12.328125-8.160156 0 0 0 0-.011719 0 5.140625 1.042969 8.800781 5.921875 8.332031 11.152343-.472656 5.320313-5.046874 9.546876-10.398437 9.546876-.699219.003906-1.40625-.078126-2.089844-.21875zm0 0" fill="#673389"/><path d="m375.808594 419.671875c0 10.199219-6.550782 18.871094-15.675782 22.027344-2.390624.847656-4.972656 1.296875-7.65625 1.296875-12.882812 0-23.332031-10.441406-23.332031-23.324219 0-12.894531 10.449219-23.332031 23.332031-23.332031 2.683594 0 5.265626.449218 7.65625 1.296875 9.125 3.15625 15.675782 11.828125 15.675782 22.035156zm0 0" fill="#dd104f"/><path d="m375.808594 419.671875c0 10.199219-6.550782 18.871094-15.675782 22.027344-9.121093-3.15625-15.660156-11.828125-15.660156-22.027344 0-10.207031 6.539063-18.878906 15.660156-22.035156 9.125 3.15625 15.675782 11.828125 15.675782 22.035156zm0 0" fill="#fb3a4a"/><path d="m202.617188 465.367188c-3.917969-1.226563-6.824219-4.738282-7.285157-8.820313-.46875-4.132813 1.65625-8.253906 5.285157-10.28125 3.625-2.027344 8.238281-1.683594 11.519531.871094 3.191406 2.480469 4.683593 6.707031 3.753906 10.640625-1.097656 4.660156-5.378906 8.058594-10.171875 8.058594-1.050781 0-2.097656-.15625-3.101562-.46875zm0 0" fill="#fecf32"/><path d="m164.277344 450.863281c-3.632813-1.640625-6.050782-5.316406-6.136719-9.296875-.089844-4.042968 2.25-7.859375 5.886719-9.621094 3.585937-1.730468 7.945312-1.25 11.066406 1.230469 3.054688 2.425781 4.523438 6.488281 3.722656 10.304688-1.003906 4.785156-5.339844 8.324219-10.234375 8.324219-1.476562.007812-2.960937-.332032-4.304687-.941407zm0 0" fill="#673389"/><path d="m128.03125 431.0625c-6.992188-4.585938-5.816406-15.523438 2.007812-18.5 7.644532-2.902344 15.710938 4.082031 13.914063 12.0625-1.0625 4.714844-5.363281 8.148438-10.195313 8.148438-2.03125-.003907-4.03125-.597657-5.726562-1.710938zm0 0" fill="#fecf32"/><path d="m409.121094 397.457031c-101.394532 16.652344-204.839844 16.652344-306.246094 0-32.121094-5.269531-43.3125-45.570312-18.664062-66.824219 21.117187-18.210937 41.042968-37.164062 59.738281-56.757812 30.0625-31.460938 56.976562-64.5625 80.625-98.835938 15.171875-21.996093 47.6875-21.996093 62.859375 0 23.644531 34.273438 50.550781 67.375 80.613281 98.835938 18.695313 19.59375 38.621094 38.546875 59.738281 56.757812 24.648438 21.253907 13.457032 61.554688-18.664062 66.824219zm0 0" fill="#3fc37c"/><path d="m178.242188 397.457031c23.214843 12.167969 50.121093 12.222657 75.324218 12.472657-50.394531-.125-100.789062-4.28125-150.695312-12.472657-32.117188-5.269531-43.308594-45.570312-18.660156-66.824219 55.023437-47.457031 101.992187-99.976562 140.359374-155.59375 7.585938-11.003906 19.507813-16.5 31.433594-16.5-6.0625 0-12.121094 5.496094-15.96875 16.5-19.488281 55.617188-43.332031 108.136719-71.28125 155.59375-12.519531 21.253907-17.5 52.675782 9.488282 66.824219zm0 0" fill="#17a388"/><path d="m368.046875 273.875c-74.292969 11.023438-149.804687 11.023438-224.097656 0 30.0625-31.460938 56.976562-64.5625 80.625-98.835938 15.171875-21.996093 47.6875-21.996093 62.859375 0 23.644531 34.273438 50.550781 67.375 80.613281 98.835938zm0 0" fill="#17a388"/><path d="m132.097656 263.679688c-4.367187 0-8.371094-2.832032-9.839844-6.933594-1.453124-4.054688-.199218-8.691406 3.078126-11.480469 3.421874-2.90625 8.460937-3.28125 12.273437-.910156 3.648437 2.265625 5.574219 6.703125 4.726563 10.914062-.96875 4.820313-5.308594 8.410157-10.238282 8.410157zm0 0" fill="#fecf32"/><path d="m378.105469 333.195312c-.144531-5.691406 4.496093-10.554687 10.1875-10.6875 5.75-.144531 10.644531 4.582032 10.703125 10.332032.054687 5.742187-4.714844 10.554687-10.449219 10.554687-5.597656 0-10.304687-4.605469-10.441406-10.199219zm0 0" fill="#673389"/><path d="m348.746094 342.871094c-4.324219-.21875-8.15625-3.1875-9.441406-7.320313-1.285157-4.136719.179687-8.75 3.605468-11.390625 3.425782-2.644531 8.285156-2.875 11.949219-.558594 3.644531 2.304688 5.523437 6.730469 4.65625 10.953126-.980469 4.792968-5.335937 8.339843-10.226563 8.339843-.179687-.003906-.363281-.011719-.542968-.023437zm0 0" fill="#fecf32"/><path d="m308.777344 339.164062c-5.644532-.765624-9.710938-6.113281-8.945313-11.753906.769531-5.640625 6.113281-9.71875 11.757813-8.957031 5.308594.726563 9.3125 5.539063 9.035156 10.898437-.285156 5.46875-4.945312 9.917969-10.425781 9.917969-.476563 0-.953125-.035156-1.421875-.105469zm0 0" fill="#673389"/><path d="m269.207031 331.953125c-4.101562-.941406-7.304687-4.371094-7.972656-8.523437-.664063-4.109376 1.261719-8.320313 4.789063-10.519532 3.566406-2.230468 8.253906-2.074218 11.664062.398438 3.359375 2.441406 4.984375 6.769531 4.046875 10.820312-1.078125 4.671875-5.363281 8.097656-10.164063 8.097656-.792968.003907-1.59375-.089843-2.363281-.273437zm0 0" fill="#fecf32"/><path d="m230.421875 320.917969c-3.886719-1.320313-6.699219-4.910157-7.046875-9.003907s1.824219-8.113281 5.4375-10.070312c3.609375-1.953125 8.152344-1.574219 11.394531.945312 3.226563 2.507813 4.714844 6.804688 3.726563 10.769532-1.148438 4.597656-5.40625 7.925781-10.148438 7.925781-1.144531-.003906-2.28125-.191406-3.363281-.566406zm0 0" fill="#673389"/><path d="m192.917969 305.769531c-3.601563-1.707031-5.964844-5.417969-5.980469-9.402343-.019531-4.039063 2.386719-7.824219 6.050781-9.523438 3.609375-1.671875 7.960938-1.117188 11.039063 1.40625 3.011718 2.476562 4.417968 6.5625 3.558594 10.371094-1.066407 4.710937-5.375 8.152344-10.203126 8.152344-1.535156.007812-3.078124-.351563-4.464843-1.003907zm0 0" fill="#fecf32"/><path d="m157.371094 286.09375c-4.789063-3.085938-6.203125-9.65625-3.113282-14.441406 3.089844-4.785156 9.65625-6.207032 14.441407-3.113282 3.695312 2.40625 5.539062 6.980469 4.484375 11.273438-1.136719 4.625-5.402344 7.953125-10.160156 7.953125-2-.007813-3.976563-.578125-5.652344-1.671875zm0 0" fill="#673389"/><path d="m427.78125 341.085938c-4.300781 0-8.246094-2.742188-9.769531-6.757813-1.554688-4.109375-.300781-8.921875 3.09375-11.726563 3.234375-2.671874 7.894531-3.160156 11.597656-1.179687 3.9375 2.101563 6.140625 6.617187 5.363281 11.011719-.863281 4.929687-5.269531 8.652344-10.285156 8.652344zm0 0" fill="#fecf32"/><path d="m230.566406 73.238281c-31.050781 45.007813-69.054687 87.507813-113.582031 125.910157-19.945313 17.199218-10.886719 49.808593 15.105469 54.078124 82.054687 13.476563 165.765625 13.476563 247.820312 0 25.992188-4.269531 35.050782-36.878906 15.105469-54.078124-44.527344-38.402344-82.535156-80.902344-113.582031-125.910157-12.277344-17.796875-38.589844-17.796875-50.867188 0zm0 0" fill="#3fc37c"/><path d="m256.007812 263.34375c-41.441406 0-82.878906-3.375-123.914062-10.117188-25.988281-4.273437-35.046875-36.875-15.109375-54.082031 44.535156-38.402343 82.535156-80.898437 113.589844-125.910156 6.03125-8.757813 15.464843-13.199219 24.953125-13.332031-4.921875.269531-9.800782 4.710937-12.925782 13.332031-16.363281 45.011719-36.394531 87.507813-59.871093 125.910156-10.511719 17.207031-12.757813 44.929688 7.960937 54.082031 6.585938 2.910157 43.46875 10.117188 65.316406 10.117188zm0 0" fill="#17a388"/><path d="m170.320312 147.613281c-4.386718 0-8.339843-2.835937-9.832031-6.933593-1.46875-4.035157-.203125-8.710938 3.070313-11.480469 3.433594-2.90625 8.453125-3.261719 12.273437-.902344 3.652344 2.253906 5.574219 6.699219 4.726563 10.90625-.972656 4.820313-5.3125 8.410156-10.238282 8.410156zm0 0" fill="#673389"/><path d="m346.101562 200.464844c-.011718-5.695313 4.742188-10.460938 10.4375-10.460938 5.691407 0 10.457032 4.738282 10.460938 10.4375 0 5.695313-4.742188 10.460938-10.4375 10.460938s-10.460938-4.738282-10.460938-10.4375zm0 0" fill="#fecf32"/><path d="m315.121094 209.042969c-4.265625-.394531-7.933594-3.460938-9.089844-7.582031-1.164062-4.171876.433594-8.738282 3.9375-11.277344 3.464844-2.511719 8.257812-2.636719 11.839844-.289063 3.5625 2.332031 5.382812 6.714844 4.515625 10.882813-.992188 4.773437-5.328125 8.316406-10.210938 8.316406-.332031 0-.664062-.019531-.992187-.050781zm0 0" fill="#673389"/><path d="m273.878906 202.804688c-4.117187-.882813-7.378906-4.246094-8.113281-8.394532-.734375-4.144531 1.175781-8.433594 4.738281-10.667968 3.5625-2.234376 8.257813-2.09375 11.671875.367187 3.417969 2.464844 5.039063 6.871094 4.039063 10.960937-1.128906 4.609376-5.390625 7.972657-10.140625 7.972657-.738281.003906-1.476563-.085938-2.195313-.238281zm0 0" fill="#fecf32"/><path d="m233.503906 191.050781c-3.773437-1.433593-6.433594-5.015625-6.722656-9.039062-.292969-4.082031 1.910156-8.046875 5.523438-9.964844 3.601562-1.910156 8.101562-1.527344 11.324218.984375 3.121094 2.429688 4.625 6.550781 3.792969 10.417969-1.027344 4.765625-5.335937 8.28125-10.21875 8.28125-1.265625-.007813-2.519531-.234375-3.699219-.679688zm0 0" fill="#673389"/><path d="m195.332031 172.273438c-4.816406-3.042969-6.296875-9.59375-3.261719-14.410157 3.039063-4.816406 9.589844-6.308593 14.410157-3.269531 3.703125 2.328125 5.589843 6.875 4.617187 11.140625-1.070312 4.707031-5.367187 8.144531-10.195312 8.144531-1.964844.003906-3.90625-.5625-5.570313-1.605468zm0 0" fill="#fecf32"/><path d="m397.0625 209.261719c-4.390625 0-8.335938-2.832031-9.832031-6.933594-1.46875-4.035156-.203125-8.707031 3.070312-11.480469 3.421875-2.894531 8.460938-3.273437 12.273438-.90625 3.65625 2.273438 5.5625 6.691406 4.726562 10.90625-.953125 4.824219-5.320312 8.414063-10.238281 8.414063zm0 0" fill="#673389"/><g fill="#dd104f"><path d="m183.546875 376.167969c0 12.886719-10.445313 23.332031-23.332031 23.332031-12.886719 0-23.332032-10.445312-23.332032-23.332031s10.445313-23.332031 23.332032-23.332031c12.886718 0 23.332031 10.445312 23.332031 23.332031zm0 0"/><path d="m368.046875 273.875c0 12.886719-10.445313 23.332031-23.332031 23.332031-12.882813 0-23.332032-10.445312-23.332032-23.332031s10.449219-23.332031 23.332032-23.332031c12.886718 0 23.332031 10.445312 23.332031 23.332031zm0 0"/><path d="m207.90625 214.300781c0 12.886719-10.449219 23.332031-23.332031 23.332031-12.886719 0-23.332031-10.445312-23.332031-23.332031s10.445312-23.332031 23.332031-23.332031c12.882812 0 23.332031 10.445312 23.332031 23.332031zm0 0"/></g><path d="m371.636719 418.589844c0 3.460937-2.808594 6.269531-6.269531 6.269531-3.464844 0-6.269532-2.808594-6.269532-6.269531 0-3.464844 2.804688-6.269532 6.269532-6.269532 3.460937 0 6.269531 2.804688 6.269531 6.269532zm0 0" fill="#fc8bae"/><path d="m183.546875 376.167969c0 10.199219-6.550781 18.871093-15.671875 22.027343-9.125-3.15625-15.664062-11.828124-15.664062-22.027343 0-10.210938 6.539062-18.882813 15.664062-22.039063 9.121094 3.15625 15.671875 11.828125 15.671875 22.039063zm0 0" fill="#fb3a4a"/><path d="m179.375 375.082031c0 3.464844-2.808594 6.269531-6.269531 6.269531-3.460938 0-6.269531-2.804687-6.269531-6.269531 0-3.460937 2.808593-6.265625 6.269531-6.265625 3.460937 0 6.269531 2.804688 6.269531 6.265625zm0 0" fill="#fc8bae"/><path d="m368.046875 273.875c0 10.199219-6.550781 18.871094-15.671875 22.027344-9.121094-3.15625-15.664062-11.828125-15.664062-22.027344 0-10.207031 6.542968-18.882812 15.664062-22.035156 9.121094 3.152344 15.671875 11.828125 15.671875 22.035156zm0 0" fill="#fb3a4a"/><path d="m363.875 272.792969c0 3.460937-2.804688 6.269531-6.269531 6.269531-3.460938 0-6.269531-2.808594-6.269531-6.269531 0-3.464844 2.808593-6.269531 6.269531-6.269531 3.464843 0 6.269531 2.804687 6.269531 6.269531zm0 0" fill="#fc8bae"/><path d="m207.90625 214.300781c0 10.199219-6.554688 18.871094-15.675781 22.027344-9.121094-3.15625-15.664063-11.828125-15.664063-22.027344 0-10.210937 6.542969-18.882812 15.664063-22.039062 9.121093 3.15625 15.675781 11.828125 15.675781 22.039062zm0 0" fill="#fb3a4a"/><path d="m203.730469 213.21875c0 3.460938-2.804688 6.269531-6.269531 6.269531-3.460938 0-6.269532-2.808593-6.269532-6.269531 0-3.464844 2.808594-6.269531 6.269532-6.269531 3.464843 0 6.269531 2.804687 6.269531 6.269531zm0 0" fill="#fc8bae"/><path d="m268.738281 7.921875 6.464844 13.101563c2.070313 4.195312 6.070313 7.101562 10.699219 7.773437l14.460937 2.101563c11.652344 1.695312 16.304688 16.015624 7.875 24.234374l-10.464843 10.199219c-3.347657 3.265625-4.878907 7.96875-4.085938 12.578125l2.46875 14.402344c1.992188 11.605469-10.191406 20.457031-20.617188 14.976562l-12.933593-6.800781c-4.136719-2.175781-9.082031-2.175781-13.222657 0l-12.933593 6.800781c-10.421875 5.480469-22.605469-3.371093-20.613281-14.976562l2.46875-14.402344c.789062-4.609375-.738282-9.3125-4.085938-12.578125l-10.464844-10.199219c-8.433594-8.21875-3.777344-22.539062 7.875-24.234374l14.460938-2.101563c4.625-.671875 8.628906-3.578125 10.695312-7.773437l6.46875-13.101563c5.214844-10.5625 20.273438-10.5625 25.484375 0zm0 0" fill="#fdae2f"/><path d="m263.851562 25.78125 3.984376 8.074219c1.277343 2.585937 3.742187 4.378906 6.59375 4.792969l8.914062 1.292968c7.183594 1.042969 10.050781 9.871094 4.855469 14.9375l-6.449219 6.289063c-2.066406 2.011719-3.007812 4.910156-2.519531 7.75l1.523437 8.875c1.226563 7.15625-6.285156 12.613281-12.707031 9.234375l-7.972656-4.191406c-2.550781-1.34375-5.601563-1.34375-8.148438 0l-7.972656 4.191406c-6.425781 3.378906-13.933594-2.078125-12.707031-9.234375l1.523437-8.875c.484375-2.839844-.457031-5.738281-2.519531-7.75l-6.449219-6.289063c-5.199219-5.066406-2.328125-13.894531 4.851563-14.9375l8.914062-1.292968c2.851563-.414063 5.320313-2.207032 6.59375-4.792969l3.988282-8.074219c3.207031-6.507812 12.488281-6.507812 15.703124 0zm0 0" fill="#fecf32"/><path d="m87.144531 227.328125-28.296875 6.195313c-3.1875.699218-5.671875 3.1875-6.371094 6.375l-6.199218 28.285156c-1.910156 8.757812-14.398438 8.757812-16.320313 0l-6.195312-28.285156c-.699219-3.1875-3.1875-5.675782-6.375-6.375l-16.089844-3.519532c.773437-7.566406 1.859375-15.035156 3.269531-22.394531l12.820313-2.808594c3.1875-.691406 5.675781-3.1875 6.375-6.375l6.195312-28.285156c1.921875-8.757813 14.410157-8.757813 16.320313 0l6.199218 28.285156c.699219 3.1875 3.183594 5.683594 6.371094 6.375l28.296875 6.195313c8.757813 1.921875 8.757813 14.410156 0 16.332031zm0 0" fill="#fecf32"/><path d="m444.097656 94.75 28.292969-6.195312c8.757813-1.917969 8.757813-14.40625 0-16.324219l-28.292969-6.195313c-3.183594-.699218-5.675781-3.1875-6.371094-6.375l-6.199218-28.292968c-1.917969-8.753907-14.402344-8.753907-16.324219 0l-6.195313 28.292968c-.699218 3.1875-3.1875 5.675782-6.375 6.375l-28.289062 6.195313c-8.757812 1.917969-8.757812 14.40625 0 16.324219l28.289062 6.195312c3.1875.699219 5.675782 3.1875 6.375 6.375l6.195313 28.289062c1.921875 8.757813 14.40625 8.757813 16.324219 0l6.199218-28.289062c.695313-3.1875 3.1875-5.675781 6.371094-6.375zm0 0" fill="#fb3a4a"/><path d="m511.632812 269.804688c-.40625 7.585937-1.136718 15.085937-2.191406 22.484374l-13.113281 2.875c-3.1875.699219-5.675781 3.1875-6.375 6.371094l-6.195313 28.296875c-1.925781 8.757813-14.410156 8.757813-16.324218 0l-6.195313-28.296875c-.699219-3.183594-3.1875-5.671875-6.375-6.371094l-28.292969-6.199218c-8.757812-1.910156-8.757812-14.398438 0-16.320313l28.292969-6.195312c3.1875-.699219 5.675781-3.1875 6.375-6.375l6.195313-28.285157c1.914062-8.765624 14.398437-8.765624 16.324218 0l6.195313 28.285157c.699219 3.1875 3.1875 5.675781 6.375 6.375zm0 0" fill="#46b8fc"/></svg>